{
  "accessors": [
    {
      "bufferView": 2,
      "componentType": 5126,
      "count": 3175,
      "max": [
        7.1500000953674316,
        2.1040000915527344,
        6.6550002098083496
      ],
      "min": [
        -6.9640002250671387,
        -4.000999927520752,
        -7.3509998321533203
      ],
      "type": "VEC3"
    },
    {
      "bufferView": 2,
      "byteOffset": 38100,
      "componentType": 5126,
      "count": 3175,
      "max": [
        0.99666988849639893,
        0.95459014177322388,
        0.95802700519561768
      ],
      "min": [
        -0.99604225158691406,
        -0.95459014177322388,
        -0.95801961421966553
      ],
      "type": "VEC3"
    },
    {
      "bufferView": 3,
      "componentType": 5126,
      "count": 3175,
      "max": [
        0.99670827388763428,
        0.95468264818191528,
        0.95802485942840576,
        1
      ],
      "min": [
        -0.9967084527015686,
        -0.99902331829071045,
        -0.95802509784698486,
        -1
      ],
      "type": "VEC4"
    },
    {
      "bufferView": 1,
      "componentType": 5126,
      "count": 3175,
      "max": [
        1,
        1
      ],
      "min": [
        0,
        0
      ],
      "type": "VEC2"
    },
    {
      "bufferView": 0,
      "componentType": 5125,
      "count": 3948,
      "max": [
        3174
      ],
      "min": [
        0
      ],
      "type": "SCALAR"
    }
  ],
  "asset": {
    "extras": {
      "author": "Emilio Vegas (https://sketchfab.com/emiliusvgs)",
      "license": "CC-BY-4.0 (http://creativecommons.org/licenses/by/4.0/)",
      "source": "https://sketchfab.com/3d-models/emiliusvgs-2451421133424248a6f1648e10543806",
      "title": "Emiliusvgs"
    },
    "generator": "Sketchfab-4.54.1",
    "version": "2.0"
  },
  "bufferViews": [
    {
      "buffer": 0,
      "byteLength": 15792,
      "byteOffset": 0,
      "name": "floatBufferViews",
      "target": 34963
    },
    {
      "buffer": 0,
      "byteLength": 25400,
      "byteOffset": 15792,
      "byteStride": 8,
      "name": "floatBufferViews",
      "target": 34962
    },
    {
      "buffer": 0,
      "byteLength": 76200,
      "byteOffset": 41192,
      "byteStride": 12,
      "name": "floatBufferViews",
      "target": 34962
    },
    {
      "buffer": 0,
      "byteLength": 50800,
      "byteOffset": 117392,
      "byteStride": 16,
      "name": "floatBufferViews",
      "target": 34962
    }
  ],
  "buffers": [
    {
      "byteLength": 168192,
      "uri": "scene.bin"
    }
  ],
  "materials": [
    {
      "doubleSided": true,
      "emissiveFactor": [
        0,
        0,
        0
      ],
      "name": "emiliusvgslogo_material_81b23180-1a71-4b8e-bc2a-871716b7e09a",
      "pbrMetallicRoughness": {
        "baseColorFactor": [
          0.255,
          0.318,
          1,
          1
        ],
        "metallicFactor": 0,
        "roughnessFactor": 1
      }
    }
  ],
  "meshes": [
    {
      "primitives": [
        {
          "attributes": {
            "NORMAL": 1,
            "POSITION": 0,
            "TANGENT": 2,
            "TEXCOORD_0": 3
          },
          "indices": 4,
          "material": 0,
          "mode": 4
        }
      ]
    }
  ],
  "nodes": [
    {
      "children": [
        1
      ],
      "name": "RootNode (gltf orientation matrix)",
      "rotation": [
        -0.70710678118654746,
        -0,
        -0,
        0.70710678118654757
      ]
    },
    {
      "children": [
        2
      ],
      "name": "RootNode (model correction matrix)"
    },
    {
      "children": [
        3
      ],
      "name": "Project Name.obj.cleaner.materialmerger.gles"
    },
    {
      "mesh": 0,
      "name": ""
    }
  ],
  "scene": 0,
  "scenes": [
    {
      "name": "OSG_Scene",
      "nodes": [
        0
      ]
    }
  ]
}

